<svg height="328" xmlns:ev="http://www.w3.org/2001/xml-events" xmlns:xlink="http://www.w3.org/1999/xlink" viewBox="0 0 442 328" xmlns="http://www.w3.org/2000/svg" width="442"><defs/><g id="page1" transform="translate(5.5,5.5)"><rect height="318" x="0" y="0" fill="#ffffff" width="432"/><g id="shape1" transform="translate(235.583400,8.795200)"><path fill-rule="nonzero" stroke-width="1" fill="#002b49" stroke="#333e48" d="M.0,.0L187.5,.0L187.5,56.7L.0,56.7L.0,.0z"/><text xml:space="preserve" style="fill:#ffffff;font-family:Lato,PingFang SC,Mircrosoft YaHei,Arial;font-size:18.00pt"><tspan style="font-size:12.00pt" x="65.3" y="35.0">Context</tspan></text></g><g id="shape2" transform="translate(235.583300,77.385500)"><path fill-rule="nonzero" stroke-width="1" fill="#0091bd" stroke="#333e48" d="M.0,.0L187.5,.0L187.5,56.7L.0,56.7L.0,.0z"/><text xml:space="preserve" style="fill:#000000;font-family:Lato,PingFang SC,Mircrosoft YaHei,Arial;font-size:18.00pt"><tspan style="font-size:12.00pt" x="63.3" y="34.8">Test case</tspan></text></g><g id="shape3" transform="translate(235.583300,146.976500)"><path fill-rule="nonzero" stroke-width="1" fill="#00c1de" stroke="#333e48" d="M.0,.0L187.5,.0L187.5,56.7L.0,56.7L.0,.0z"/><text xml:space="preserve" style="fill:#000000;font-family:Lato,PingFang SC,Mircrosoft YaHei,Arial;font-size:18.00pt"><tspan style="font-size:12.00pt" x="61.3" y="34.8">Compute</tspan></text></g><g id="shape4" transform="translate(290.463100,214.566600)"><path fill-rule="nonzero" stroke-width="1" fill="#e5eceb" stroke="#333e48" d="M.0,.0L131.4,.0L131.4,41.6L.0,41.6L.0,.0z"/><text xml:space="preserve" style="fill:#191919;font-family:Lato,PingFang SC,Mircrosoft YaHei,Arial;font-size:18.00pt"><tspan style="font-size:12.00pt" x="34.2" y="27.3">Pipelines</tspan></text></g><g id="shape5" transform="translate(290.463000,267.480600)"><path fill-rule="nonzero" stroke-width="1" fill="#ffffff" stroke="#333e48" d="M.0,.0L131.4,.0L131.4,41.6L.0,41.6L.0,.0z"/><text xml:space="preserve" style="fill:#000000;font-family:Lato,PingFang SC,Mircrosoft YaHei,Arial;font-size:18.00pt"><tspan style="font-size:12.00pt" x="14.2" y="27.3">GLSL Compiler</tspan></text></g><g id="shape6" transform="translate(8.842000,8.582700)"><path fill-rule="nonzero" stroke-width="1" fill="#7d868c" stroke="#333e48" d="M.0,.0L213.5,.0L213.5,195.1L.0,195.1L.0,.0z"/><text xml:space="preserve" style="fill:#191919;font-family:Lato,PingFang SC,Mircrosoft YaHei,Arial;font-size:18.00pt"><tspan style="font-size:12.00pt" x="57.3" y="104.0">Data Manager</tspan></text></g><g id="group7" transform="translate(8.843000,214.566900)"><g id="shape8"><path fill-rule="nonzero" stroke-width="1" fill="#e5eceb" stroke="#333e48" d="M.0,.0L270.2,.0L270.2,49.1L.0,49.1L.0,.0z"/><text xml:space="preserve" style="fill:#191919;font-family:Lato,PingFang SC,Mircrosoft YaHei,Arial;font-size:18.00pt"><tspan style="font-size:12.00pt" x="108.1" y="31.1">Objects</tspan></text></g><g id="shape9" transform="translate(0.000000,49.133800)"><path fill-rule="nonzero" stroke-width="1" fill="#e5eceb" stroke="#333e48" d="M.0,.0L62.4,.0L62.4,45.4L.0,45.4L.0,.0z"/><text xml:space="preserve" style="fill:#191919;font-family:Lato,PingFang SC,Mircrosoft YaHei,Arial;font-size:18.00pt"><tspan style="font-size:12.00pt" x="9.7" y="29.2">Buffer</tspan></text></g><g id="shape10" transform="translate(62.362300,49.133800)"><path fill-rule="nonzero" stroke-width="1" fill="#e5eceb" stroke="#333e48" d="M.0,.0L68.0,.0L68.0,45.4L.0,45.4L.0,.0z"/><text xml:space="preserve" style="fill:#191919;font-family:Lato,PingFang SC,Mircrosoft YaHei,Arial;font-size:18.00pt"><tspan style="font-size:12.00pt" x="13.0" y="29.2">Image</tspan></text></g><g id="shape11" transform="translate(130.394000,49.133800)"><path fill-rule="nonzero" stroke-width="1" fill="#e5eceb" stroke="#333e48" d="M.0,.0L79.4,.0L79.4,45.4L.0,45.4L.0,.0z"/><text xml:space="preserve" style="fill:#191919;font-family:Lato,PingFang SC,Mircrosoft YaHei,Arial;font-size:18.00pt"><tspan style="font-size:12.00pt" x="7.7" y="29.2">RawData</tspan></text></g><g id="shape12" transform="translate(209.763800,49.133800)"><path fill-rule="nonzero" stroke-width="1" fill="#e5eceb" stroke="#333e48" d="M.0,.0L60.5,.0L60.5,45.4L.0,45.4L.0,.0z"/><text xml:space="preserve" style="fill:#191919;font-family:Lato,PingFang SC,Mircrosoft YaHei,Arial;font-size:18.00pt"><tspan style="font-size:12.00pt" x="7.2" y="29.2">Tensor</tspan></text></g></g></g></svg>
