<?xml version="1.0" encoding="UTF-8"?>
<!-- Do not edit this file with editors other than diagrams.net -->
<!--
 SPDX-FileCopyrightText: Copyright 2023-2025 Arm Limited and/or its affiliates <open-source-office@arm.com>
 SPDX-License-Identifier: Apache-2.0
-->
<svg viewBox="0 0 213 445" xmlns="http://www.w3.org/2000/svg" height="445" width="213" xmlns:xlink="http://www.w3.org/1999/xlink" xmlns:ev="http://www.w3.org/2001/xml-events"><defs/><g id="page1" transform="translate(5.5,5.5)"><rect height="435" width="203" y="0" x="0" fill="#ffffff"/><g id="shape1" transform="translate(9.181200,9.072100)"><path stroke="#333e48" stroke-width="1" d="M184.5,36.1L184.5,.0L.0,.0L.0,36.1L184.5,36.1z" fill="none"/><text style="fill:#000000;font-family:Lato,PingFang SC,Mircrosoft YaHei,Arial;font-size:18.00pt" xml:space="preserve"><tspan style="font-size:12.00pt" textLength="79.0" y="24.6" x="52.8">Initiate app</tspan></text></g><g id="shape2" transform="translate(9.181200,72.560000)"><path stroke="#333e48" stroke-width="1" d="M184.5,36.1L184.5,.0L.0,.0L.0,36.1L184.5,36.1z" fill="none"/><text style="fill:#000000;font-family:Lato,PingFang SC,Mircrosoft YaHei,Arial;font-size:18.00pt" xml:space="preserve"><tspan style="font-size:12.00pt" textLength="138.0" y="25.0" x="23.3">Load scenario JSON</tspan></text></g><g id="shape3" transform="translate(101.441000,45.181100)"><path stroke="#333e48" stroke-width="1.3333300352096558" d="M.0,.0L-0.0,20.5" fill="none"/><path stroke="#333e48" stroke-width="1" stroke-linecap="round" fill="#333e48" d="M3.5,20.5L-0.0,27.4L-3.5,20.5L3.5,20.5"/></g><g id="shape4" transform="translate(9.181200,136.047500)"><path stroke="#333e48" stroke-width="1" d="M184.5,36.1L184.5,.0L.0,.0L.0,36.1L184.5,36.1z" fill="none"/><text style="fill:#000000;font-family:Lato,PingFang SC,Mircrosoft YaHei,Arial;font-size:18.00pt" xml:space="preserve"><tspan style="font-size:12.00pt" textLength="145.0" y="24.6" x="19.8">Load src resouce files</tspan></text></g><g id="shape5" transform="translate(101.441000,108.669000)"><path stroke="#333e48" stroke-width="1.3333300352096558" d="M.0,.0L.0,20.5" fill="none"/><path stroke="#333e48" stroke-width="1" stroke-linecap="round" fill="#333e48" d="M3.5,20.5L.0,27.4L-3.5,20.5L3.5,20.5"/></g><g id="shape6" transform="translate(9.181200,199.535500)"><path stroke="#333e48" stroke-width="1" d="M184.5,36.1L184.5,.0L.0,.0L.0,36.1L184.5,36.1z" fill="none"/><text style="fill:#000000;font-family:Lato,PingFang SC,Mircrosoft YaHei,Arial;font-size:18.00pt" xml:space="preserve"><tspan style="font-size:12.00pt" textLength="116.0" y="25.0" x="34.3">Execute scenario</tspan></text></g><g id="shape7" transform="translate(9.181200,263.023500)"><path stroke="#333e48" stroke-width="1" d="M184.5,36.1L184.5,.0L.0,.0L.0,36.1L184.5,36.1z" fill="none"/><text style="fill:#000000;font-family:Lato,PingFang SC,Mircrosoft YaHei,Arial;font-size:18.00pt" xml:space="preserve"><tspan style="font-size:12.00pt" textLength="156.0" y="24.6" x="14.3">Store dst resource files</tspan></text></g><g id="shape8" transform="translate(9.181200,326.511500)"><path stroke="#333e48" stroke-width="1" d="M184.5,36.1L184.5,.0L.0,.0L.0,36.1L184.5,36.1z" fill="none"/><text style="fill:#000000;font-family:Lato,PingFang SC,Mircrosoft YaHei,Arial;font-size:18.00pt" xml:space="preserve"><tspan style="font-size:12.00pt" textLength="165.0" y="24.6" x="9.8">Store performance stats</tspan></text></g><g id="shape9" transform="translate(9.181200,389.999500)"><path stroke="#333e48" stroke-width="1" d="M184.5,36.1L184.5,.0L.0,.0L.0,36.1L184.5,36.1z" fill="none"/><text style="fill:#000000;font-family:Lato,PingFang SC,Mircrosoft YaHei,Arial;font-size:18.00pt" xml:space="preserve"><tspan style="font-size:12.00pt" textLength="103.0" y="24.6" x="40.8">Shut down app</tspan></text></g><g id="shape10" transform="translate(101.441000,172.157000)"><path stroke="#333e48" stroke-width="1.3333300352096558" d="M.0,.0L-0.0,20.5" fill="none"/><path stroke="#333e48" stroke-width="1" stroke-linecap="round" fill="#333e48" d="M3.5,20.5L-0.0,27.4L-3.5,20.5L3.5,20.5"/></g><g id="shape11" transform="translate(101.441000,235.645000)"><path stroke="#333e48" stroke-width="1.3333300352096558" d="M.0,.0L.0,20.5" fill="none"/><path stroke="#333e48" stroke-width="1" stroke-linecap="round" fill="#333e48" d="M3.5,20.5L.0,27.4L-3.5,20.5L3.5,20.5"/></g><g id="shape12" transform="translate(101.441000,299.133000)"><path stroke="#333e48" stroke-width="1.3333300352096558" d="M.0,.0L-0.0,20.5" fill="none"/><path stroke="#333e48" stroke-width="1" stroke-linecap="round" fill="#333e48" d="M3.5,20.5L-0.0,27.4L-3.5,20.5L3.5,20.5"/></g><g id="shape13" transform="translate(101.441000,362.621000)"><path stroke="#333e48" stroke-width="1.3333300352096558" d="M.0,.0L-0.0,20.5" fill="none"/><path stroke="#333e48" stroke-width="1" stroke-linecap="round" fill="#333e48" d="M3.5,20.5L-0.0,27.4L-3.5,20.5L3.5,20.5"/></g></g></svg>
