<svg xmlns:ev="http://www.w3.org/2001/xml-events" xmlns:xlink="http://www.w3.org/1999/xlink" xmlns="http://www.w3.org/2000/svg" width="765" viewBox="0 0 765 426" height="426"><defs/><g transform="translate(5.5,5.5)" id="page1"><rect x="0" fill="#ffffff" y="0" width="755" height="416"/><g transform="translate(124.898000,8.885800)" id="shape1"><path d="M.0,53.4L.0,.0L100.0,.0L100.0,53.4L100.0,53.4C92.9,48.6,84.3,45.7,75.0,45.7C65.7,45.7,57.1,48.6,50.0,53.4L50.0,53.4C42.9,58.2,34.3,61.0,25.0,61.0C15.7,61.0,7.1,58.2,.0,53.4z" fill="#ffffff" fill-rule="nonzero" stroke-width="1" stroke="#333e48"/><text xml:space="preserve" style="fill:#000000;font-family:Lato,PingFang SC,Mircrosoft YaHei,Arial;font-size:18.00pt"><tspan x="18.0" style="font-size:12.00pt" y="19.9">scenario </tspan><tspan x="30.0" style="font-size:12.00pt" y="38.9">JSON</tspan></text></g><g transform="translate(306.079000,84.476000)" id="shape2"><path d="M.0,53.4L.0,.0L100.0,.0L100.0,53.4L100.0,53.4C92.9,48.6,84.3,45.7,75.0,45.7C65.7,45.7,57.1,48.6,50.0,53.4L50.0,53.4C42.9,58.2,34.3,61.0,25.0,61.0C15.7,61.0,7.1,58.2,.0,53.4z" fill="#ffffff" fill-rule="nonzero" stroke-width="1" stroke="#333e48"/><text xml:space="preserve" style="fill:#000000;font-family:Lato,PingFang SC,Mircrosoft YaHei,Arial;font-size:18.00pt"><tspan x="29.0" style="font-size:12.00pt" y="19.9">Image </tspan><tspan x="31.0" style="font-size:12.00pt" y="38.9">(.dds)</tspan></text></g><g transform="translate(419.465000,85.476000)" id="shape3"><path d="M.0,53.4L.0,.0L100.0,.0L100.0,53.4L100.0,53.4C92.9,48.6,84.3,45.7,75.0,45.7C65.7,45.7,57.1,48.6,50.0,53.4L50.0,53.4C42.9,58.2,34.3,61.0,25.0,61.0C15.7,61.0,7.1,58.2,.0,53.4z" fill="#ffffff" fill-rule="nonzero" stroke-width="1" stroke="#333e48"/><text xml:space="preserve" style="fill:#000000;font-family:Lato,PingFang SC,Mircrosoft YaHei,Arial;font-size:18.00pt"><tspan x="24.5" style="font-size:12.00pt" y="19.9">NumPy</tspan><tspan x="30.5" style="font-size:12.00pt" y="38.9">(.npy)</tspan></text></g><g transform="translate(532.850000,85.976000)" id="shape4"><path d="M.0,53.4L.0,.0L100.0,.0L100.0,53.4L100.0,53.4C92.9,48.6,84.3,45.7,75.0,45.7C65.7,45.7,57.1,48.6,50.0,53.4L50.0,53.4C42.9,58.2,34.3,61.0,25.0,61.0C15.7,61.0,7.1,58.2,.0,53.4z" fill="#ffffff" fill-rule="nonzero" stroke-width="1" stroke="#333e48"/><text xml:space="preserve" style="fill:#000000;font-family:Lato,PingFang SC,Mircrosoft YaHei,Arial;font-size:18.00pt"><tspan x="26.0" style="font-size:12.00pt" y="19.9">Shader</tspan><tspan x="32.0" style="font-size:12.00pt" y="38.9">(.glsl)</tspan></text></g><g transform="translate(646.236000,85.976000)" id="shape5"><path d="M.0,53.4L.0,.0L100.0,.0L100.0,53.4L100.0,53.4C92.9,48.6,84.3,45.7,75.0,45.7C65.7,45.7,57.1,48.6,50.0,53.4L50.0,53.4C42.9,58.2,34.3,61.0,25.0,61.0C15.7,61.0,7.1,58.2,.0,53.4z" fill="#ffffff" fill-rule="nonzero" stroke-width="1" stroke="#333e48"/><text xml:space="preserve" style="fill:#000000;font-family:Lato,PingFang SC,Mircrosoft YaHei,Arial;font-size:18.00pt"><tspan x="28.0" style="font-size:12.00pt" y="19.9">Graph</tspan><tspan x="33.5" style="font-size:12.00pt" y="38.9">(.vgf)</tspan></text></g><g transform="translate(108.756300,179.465000)" id="shape6"><path d="M132.3,73.0L132.3,.0L.0,.0L.0,73.0L132.3,73.0z" fill="#ffffff" fill-rule="nonzero" stroke-width="1" stroke="#333e48"/><text xml:space="preserve" style="fill:#000000;font-family:Lato,PingFang SC,Mircrosoft YaHei,Arial;font-size:18.00pt"><tspan x="11.1" style="font-size:12.00pt" y="33.5">ScenarioRunner</tspan><tspan x="28.1" style="font-size:12.00pt" y="52.5">Executable</tspan></text></g><g transform="translate(8.755900,345.736000)" id="shape7"><path d="M.0,53.4L.0,.0L100.0,.0L100.0,53.4L100.0,53.4C92.9,48.6,84.3,45.7,75.0,45.7C65.7,45.7,57.1,48.6,50.0,53.4L50.0,53.4C42.9,58.2,34.3,61.0,25.0,61.0C15.7,61.0,7.1,58.2,.0,53.4z" fill="#ffffff" fill-rule="nonzero" stroke-width="1" stroke="#333e48"/><text xml:space="preserve" style="fill:#000000;font-family:Lato,PingFang SC,Mircrosoft YaHei,Arial;font-size:18.00pt"><tspan x="18.0" style="font-size:12.00pt" y="19.9">scenario </tspan><tspan x="33.0" style="font-size:12.00pt" y="38.9">stats</tspan></text></g><g transform="translate(124.898000,345.736000)" id="shape8"><path d="M.0,53.4L.0,.0L100.0,.0L100.0,53.4L100.0,53.4C92.9,48.6,84.3,45.7,75.0,45.7C65.7,45.7,57.1,48.6,50.0,53.4L50.0,53.4C42.9,58.2,34.3,61.0,25.0,61.0C15.7,61.0,7.1,58.2,.0,53.4z" fill="#ffffff" fill-rule="nonzero" stroke-width="1" stroke="#333e48"/><text xml:space="preserve" style="fill:#000000;font-family:Lato,PingFang SC,Mircrosoft YaHei,Arial;font-size:18.00pt"><tspan x="24.5" style="font-size:12.00pt" y="19.9">NumPy </tspan><tspan x="28.5" style="font-size:12.00pt" y="38.9">Dump</tspan></text></g><g transform="translate(241.039000,345.736000)" id="shape9"><path d="M.0,53.4L.0,.0L100.0,.0L100.0,53.4L100.0,53.4C92.9,48.6,84.3,45.7,75.0,45.7C65.7,45.7,57.1,48.6,50.0,53.4L50.0,53.4C42.9,58.2,34.3,61.0,25.0,61.0C15.7,61.0,7.1,58.2,.0,53.4z" fill="#ffffff" fill-rule="nonzero" stroke-width="1" stroke="#333e48"/><text xml:space="preserve" style="fill:#000000;font-family:Lato,PingFang SC,Mircrosoft YaHei,Arial;font-size:18.00pt"><tspan x="29.0" style="font-size:12.00pt" y="19.9">Image </tspan><tspan x="28.5" style="font-size:12.00pt" y="38.9">Dump</tspan></text></g><g transform="translate(174.898000,62.260800)" id="shape10"><path d="M.0,.0L.0,110.3" fill="none" stroke-width="1.3333300352096558" stroke="#333e48"/><path d="M3.5,110.3L.0,117.2L-3.5,110.3L3.5,110.3" fill="#333e48" stroke-width="1" stroke="#333e48" stroke-linecap="round"/></g><path d="M.0,.0L420.5,.0" stroke-dasharray="7.99998,5.33332" fill="none" stroke-width="1.3333300352096558" transform="translate(276.079000,39.149600)" stroke="#333e48" id="shape11"/><path d="M.0,.0L-51.2,.2" stroke-dasharray="7.99998,5.33332" fill="none" stroke-width="1.3333300352096558" transform="translate(276.079000,39.149600)" stroke="#333e48" id="shape12"/><g transform="translate(356.157000,39.622000)" id="shape13"><path d="M.0,.0L-0.1,37.9" stroke-dasharray="7.99998,5.33332" fill="none" stroke-width="1.3333300352096558" stroke="#333e48"/><path d="M3.4,37.9L-0.1,44.9L-3.5,37.9L3.4,37.9" fill="#333e48" stroke-width="1" stroke="#333e48" stroke-linecap="round"/></g><g transform="translate(468.598000,39.622000)" id="shape14"><path d="M.0,.0L.7,38.9" stroke-dasharray="7.99998,5.33332" fill="none" stroke-width="1.3333300352096558" stroke="#333e48"/><path d="M4.2,38.9L.9,45.9L-2.7,39.0L4.2,38.9" fill="#333e48" stroke-width="1" stroke="#333e48" stroke-linecap="round"/></g><g transform="translate(581.984000,39.622000)" id="shape15"><path d="M.0,.0L.7,39.4" stroke-dasharray="7.99998,5.33332" fill="none" stroke-width="1.3333300352096558" stroke="#333e48"/><path d="M4.2,39.4L.9,46.4L-2.7,39.5L4.2,39.4" fill="#333e48" stroke-width="1" stroke="#333e48" stroke-linecap="round"/></g><g transform="translate(695.370000,39.622000)" id="shape16"><path d="M.0,.0L.7,39.4" stroke-dasharray="7.99998,5.33332" fill="none" stroke-width="1.3333300352096558" stroke="#333e48"/><path d="M4.2,39.4L.9,46.4L-2.7,39.5L4.2,39.4" fill="#333e48" stroke-width="1" stroke="#333e48" stroke-linecap="round"/></g><g transform="translate(246.519300,23.635800)" id="shape17"><path d="M.0,.0L85.0,.0L85.0,25.5L.0,25.5L.0,.0z" fill="#ffffff" fill-rule="nonzero"/><text xml:space="preserve" style="fill:#000000;font-family:Lato,PingFang SC,Mircrosoft YaHei,Arial;font-size:18.00pt"><tspan x="8.0" style="font-size:12.00pt" y="19.3">Reference</tspan></text></g><g transform="translate(148.243800,125.669200)" id="shape18"><path d="M.0,.0L54.7,.0L54.7,34.9L.0,34.9L.0,.0z" fill="#ffffff" fill-rule="nonzero"/><text xml:space="preserve" style="fill:#000000;font-family:Lato,PingFang SC,Mircrosoft YaHei,Arial;font-size:18.00pt"><tspan x="9.9" style="font-size:12.00pt" y="23.9">Read</tspan></text></g><path d="M.0,.0L401.6,.0" fill="none" stroke-width="1.3333300352096558" transform="translate(294.977000,217.260000)" stroke="#333e48" id="shape19"/><g transform="translate(294.976000,217.260000)" id="shape20"><path d="M.0,.0L-46.0,.0" fill="none" stroke-width="1.3333300352096558" stroke="#333e48"/><path d="M-46.0,3.5L-53.0,.0L-46.0,-3.5L-46.0,3.5" fill="#333e48" stroke-width="1" stroke="#333e48" stroke-linecap="round"/></g><g transform="translate(268.078300,198.516200)" id="shape21"><path d="M.0,.0L54.0,.0L54.0,34.9L.0,34.9L.0,.0z" fill="#ffffff" fill-rule="nonzero"/><text xml:space="preserve" style="fill:#000000;font-family:Lato,PingFang SC,Mircrosoft YaHei,Arial;font-size:18.00pt"><tspan x="9.5" style="font-size:12.00pt" y="23.9">Read</tspan></text></g><path d="M.0,.0L.0,79.4" fill="none" stroke-width="1.3333300352096558" transform="translate(356.079000,137.851000)" stroke="#333e48" id="shape22"/><path d="M.0,.0L.0,78.4" fill="none" stroke-width="1.3333300352096558" transform="translate(469.465000,138.851000)" stroke="#333e48" id="shape23"/><path d="M.0,.0L.0,77.9" fill="none" stroke-width="1.3333300352096558" transform="translate(582.850000,139.351000)" stroke="#333e48" id="shape24"/><path d="M.0,.0L.0,77.9" fill="none" stroke-width="1.3333300352096558" transform="translate(696.236000,139.351000)" stroke="#333e48" id="shape25"/><path d="M.0,.0L232.4,.0" fill="none" stroke-width="1.3333300352096558" transform="translate(58.756000,311.748000)" stroke="#333e48" id="shape26"/><path d="M.0,.0L.0,59.3" fill="none" stroke-width="1.3333300352096558" transform="translate(174.898000,252.465000)" stroke="#333e48" id="shape27"/><g transform="translate(141.827100,268.952500)" id="shape28"><path d="M.0,.0L66.1,.0L66.1,27.3L.0,27.3L.0,.0z" fill="#ffffff" fill-rule="nonzero"/><text xml:space="preserve" style="fill:#000000;font-family:Lato,PingFang SC,Mircrosoft YaHei,Arial;font-size:18.00pt"><tspan x="13.1" style="font-size:12.00pt" y="20.2">Write</tspan></text></g><g transform="translate(58.755900,311.748000)" id="shape29"><path d="M.0,.0L.0,27.1" fill="none" stroke-width="1.3333300352096558" stroke="#333e48"/><path d="M3.5,27.1L.0,34.0L-3.5,27.1L3.5,27.1" fill="#333e48" stroke-width="1" stroke="#333e48" stroke-linecap="round"/></g><g transform="translate(174.898000,311.748000)" id="shape30"><path d="M.0,.0L.0,27.1" fill="none" stroke-width="1.3333300352096558" stroke="#333e48"/><path d="M3.5,27.1L.0,34.0L-3.5,27.1L3.5,27.1" fill="#333e48" stroke-width="1" stroke="#333e48" stroke-linecap="round"/></g><g transform="translate(291.039000,311.748000)" id="shape31"><path d="M.0,.0L.0,27.1" fill="none" stroke-width="1.3333300352096558" stroke="#333e48"/><path d="M3.5,27.1L.0,34.0L-3.5,27.1L3.5,27.1" fill="#333e48" stroke-width="1" stroke="#333e48" stroke-linecap="round"/></g></g></svg>
