<?xml version="1.0" encoding="UTF-8"?>
<!-- Do not edit this file with editors other than diagrams.net -->
<!--
 SPDX-FileCopyrightText: Copyright 2023-2025 Arm Limited and/or its affiliates <open-source-office@arm.com>
 SPDX-License-Identifier: Apache-2.0
-->
<svg xmlns:xlink="http://www.w3.org/1999/xlink" xmlns:ev="http://www.w3.org/2001/xml-events" height="328" width="442" xmlns="http://www.w3.org/2000/svg" viewBox="0 0 442 328"><defs/><g transform="translate(5.5,5.5)" id="page1"><rect height="318" fill="#ffffff" y="0" x="0" width="432"/><g transform="translate(235.583400,8.795200)" id="shape1"><path stroke="#333e48" stroke-width="1" fill="#002b49" d="M.0,.0L187.5,.0L187.5,56.7L.0,56.7L.0,.0z" fill-rule="nonzero"/><text style="fill:#ffffff;font-family:Lato,PingFang SC,Mircrosoft YaHei,Arial;font-size:18.00pt" xml:space="preserve"><tspan style="font-size:12.00pt" textLength="57.0" y="35.0" x="65.3">Context</tspan></text></g><g transform="translate(235.583300,77.385500)" id="shape2"><path stroke="#333e48" stroke-width="1" fill="#0091bd" d="M.0,.0L187.5,.0L187.5,56.7L.0,56.7L.0,.0z" fill-rule="nonzero"/><text style="fill:#000000;font-family:Lato,PingFang SC,Mircrosoft YaHei,Arial;font-size:18.00pt" xml:space="preserve"><tspan style="font-size:12.00pt" textLength="61.0" y="34.8" x="63.3">Test case</tspan></text></g><g transform="translate(235.583300,146.976500)" id="shape3"><path stroke="#333e48" stroke-width="1" fill="#00c1de" d="M.0,.0L187.5,.0L187.5,56.7L.0,56.7L.0,.0z" fill-rule="nonzero"/><text style="fill:#000000;font-family:Lato,PingFang SC,Mircrosoft YaHei,Arial;font-size:18.00pt" xml:space="preserve"><tspan style="font-size:12.00pt" textLength="65.0" y="34.8" x="61.3">Compute</tspan></text></g><g transform="translate(290.463100,214.566600)" id="shape4"><path stroke="#333e48" stroke-width="1" fill="#e5eceb" d="M.0,.0L131.4,.0L131.4,41.6L.0,41.6L.0,.0z" fill-rule="nonzero"/><text style="fill:#191919;font-family:Lato,PingFang SC,Mircrosoft YaHei,Arial;font-size:18.00pt" xml:space="preserve"><tspan style="font-size:12.00pt" textLength="63.0" y="27.3" x="34.2">Pipelines</tspan></text></g><g transform="translate(290.463000,267.480600)" id="shape5"><path stroke="#333e48" stroke-width="1" fill="#ffffff" d="M.0,.0L131.4,.0L131.4,41.6L.0,41.6L.0,.0z" fill-rule="nonzero"/><text style="fill:#000000;font-family:Lato,PingFang SC,Mircrosoft YaHei,Arial;font-size:18.00pt" xml:space="preserve"><tspan style="font-size:12.00pt" textLength="103.0" y="27.3" x="14.2">GLSL Compiler</tspan></text></g><g transform="translate(8.842000,8.582700)" id="shape6"><path stroke="#333e48" stroke-width="1" fill="#7d868c" d="M.0,.0L213.5,.0L213.5,195.1L.0,195.1L.0,.0z" fill-rule="nonzero"/><text style="fill:#e5eceb;font-family:Lato,PingFang SC,Mircrosoft YaHei,Arial;font-size:18.00pt" xml:space="preserve"><tspan style="font-size:12.00pt" textLength="99.0" y="104.5" x="57.3">Data Manager</tspan></text></g><g transform="translate(8.843000,214.566900)" id="group7"><g id="shape8"><path stroke="#333e48" stroke-width="1" fill="#e5eceb" d="M.0,.0L270.2,.0L270.2,49.1L.0,49.1L.0,.0z" fill-rule="nonzero"/><text style="fill:#191919;font-family:Lato,PingFang SC,Mircrosoft YaHei,Arial;font-size:18.00pt" xml:space="preserve"><tspan style="font-size:12.00pt" textLength="54.0" y="31.1" x="108.1">Objects</tspan></text></g><g transform="translate(0.000000,49.133800)" id="shape9"><path stroke="#333e48" stroke-width="1" fill="#e5eceb" d="M.0,.0L62.4,.0L62.4,45.4L.0,45.4L.0,.0z" fill-rule="nonzero"/><text style="fill:#191919;font-family:Lato,PingFang SC,Mircrosoft YaHei,Arial;font-size:18.00pt" xml:space="preserve"><tspan style="font-size:12.00pt" textLength="43.0" y="29.2" x="9.7">Buffer</tspan></text></g><g transform="translate(62.362300,49.133800)" id="shape10"><path stroke="#333e48" stroke-width="1" fill="#e5eceb" d="M.0,.0L68.0,.0L68.0,45.4L.0,45.4L.0,.0z" fill-rule="nonzero"/><text style="fill:#191919;font-family:Lato,PingFang SC,Mircrosoft YaHei,Arial;font-size:18.00pt" xml:space="preserve"><tspan style="font-size:12.00pt" textLength="42.0" y="29.2" x="13.0">Image</tspan></text></g><g transform="translate(130.394000,49.133800)" id="shape11"><path stroke="#333e48" stroke-width="1" fill="#e5eceb" d="M.0,.0L79.4,.0L79.4,45.4L.0,45.4L.0,.0z" fill-rule="nonzero"/><text style="fill:#191919;font-family:Lato,PingFang SC,Mircrosoft YaHei,Arial;font-size:18.00pt" xml:space="preserve"><tspan style="font-size:12.00pt" textLength="64.0" y="29.2" x="7.7">RawData</tspan></text></g><g transform="translate(209.763800,49.133800)" id="shape12"><path stroke="#333e48" stroke-width="1" fill="#e5eceb" d="M.0,.0L60.5,.0L60.5,45.4L.0,45.4L.0,.0z" fill-rule="nonzero"/><text style="fill:#191919;font-family:Lato,PingFang SC,Mircrosoft YaHei,Arial;font-size:18.00pt" xml:space="preserve"><tspan style="font-size:12.00pt" textLength="46.0" y="29.2" x="7.2">Tensor</tspan></text></g></g></g></svg>
