<?xml version="1.0" encoding="UTF-8"?>
<!-- Do not edit this file with editors other than diagrams.net -->
<!--
 SPDX-FileCopyrightText: Copyright 2023-2025 Arm Limited and/or its affiliates <open-source-office@arm.com>
 SPDX-License-Identifier: Apache-2.0
-->
<svg xmlns:ev="http://www.w3.org/2001/xml-events" xmlns="http://www.w3.org/2000/svg" xmlns:xlink="http://www.w3.org/1999/xlink" width="765" height="426" viewBox="0 0 765 426"><defs/><g id="page1" transform="translate(5.5,5.5)"><rect x="0" fill="#ffffff" width="755" height="416" y="0"/><g id="shape1" transform="translate(124.898000,8.729500)"><path stroke="#333e48" stroke-width="1" fill="#ffffff" d="M.0,53.6L.0,.0L100.0,.0L100.0,53.6L100.0,53.6C92.9,48.8,84.3,46.0,75.0,46.0C65.7,46.0,57.1,48.8,50.0,53.6L50.0,53.6C42.9,58.5,34.3,61.3,25.0,61.3C15.7,61.3,7.1,58.5,.0,53.6z" fill-rule="nonzero"/><text xml:space="preserve" style="fill:#000000;font-family:Lato,PingFang SC,Mircrosoft YaHei,Arial;font-size:18.00pt"><tspan x="20.5" textLength="62.0" y="20.0" style="font-size:12.00pt">Scenario </tspan><tspan x="30.0" textLength="40.0" y="39.0" style="font-size:12.00pt">JSON</tspan></text></g><g id="shape2" transform="translate(306.079000,84.476000)"><path stroke="#333e48" stroke-width="1" fill="#ffffff" d="M.0,53.4L.0,.0L100.0,.0L100.0,53.4L100.0,53.4C92.9,48.6,84.3,45.7,75.0,45.7C65.7,45.7,57.1,48.6,50.0,53.4L50.0,53.4C42.9,58.2,34.3,61.0,25.0,61.0C15.7,61.0,7.1,58.2,.0,53.4z" fill-rule="nonzero"/><text xml:space="preserve" style="fill:#000000;font-family:Lato,PingFang SC,Mircrosoft YaHei,Arial;font-size:18.00pt"><tspan x="29.0" textLength="45.0" y="19.9" style="font-size:12.00pt">Image </tspan><tspan x="31.0" textLength="38.0" y="38.9" style="font-size:12.00pt">(.dds)</tspan></text></g><g id="shape3" transform="translate(419.465000,85.351000)"><path stroke="#333e48" stroke-width="1" fill="#ffffff" d="M.0,53.6L.0,.0L100.0,.0L100.0,53.6L100.0,53.6C92.9,48.8,84.3,45.9,75.0,45.9C65.7,45.9,57.1,48.8,50.0,53.6L50.0,53.6C42.9,58.4,34.3,61.3,25.0,61.3C15.7,61.3,7.1,58.4,.0,53.6z" fill-rule="nonzero"/><text xml:space="preserve" style="fill:#000000;font-family:Lato,PingFang SC,Mircrosoft YaHei,Arial;font-size:18.00pt"><tspan x="24.0" textLength="52.0" y="20.0" style="font-size:12.00pt">NumPy</tspan><tspan x="30.5" textLength="39.0" y="39.0" style="font-size:12.00pt">(.npy)</tspan></text></g><g id="shape4" transform="translate(532.850000,85.976000)"><path stroke="#333e48" stroke-width="1" fill="#ffffff" d="M.0,53.4L.0,.0L100.0,.0L100.0,53.4L100.0,53.4C92.9,48.6,84.3,45.7,75.0,45.7C65.7,45.7,57.1,48.6,50.0,53.4L50.0,53.4C42.9,58.2,34.3,61.0,25.0,61.0C15.7,61.0,7.1,58.2,.0,53.4z" fill-rule="nonzero"/><text xml:space="preserve" style="fill:#000000;font-family:Lato,PingFang SC,Mircrosoft YaHei,Arial;font-size:18.00pt"><tspan x="26.0" textLength="48.0" y="19.9" style="font-size:12.00pt">Shader</tspan><tspan x="32.0" textLength="36.0" y="38.9" style="font-size:12.00pt">(.glsl)</tspan></text></g><g id="shape5" transform="translate(646.236000,85.976000)"><path stroke="#333e48" stroke-width="1" fill="#ffffff" d="M.0,53.4L.0,.0L100.0,.0L100.0,53.4L100.0,53.4C92.9,48.6,84.3,45.7,75.0,45.7C65.7,45.7,57.1,48.6,50.0,53.4L50.0,53.4C42.9,58.2,34.3,61.0,25.0,61.0C15.7,61.0,7.1,58.2,.0,53.4z" fill-rule="nonzero"/><text xml:space="preserve" style="fill:#000000;font-family:Lato,PingFang SC,Mircrosoft YaHei,Arial;font-size:18.00pt"><tspan x="28.0" textLength="44.0" y="19.9" style="font-size:12.00pt">Graph</tspan><tspan x="33.5" textLength="33.0" y="38.9" style="font-size:12.00pt">(.vgf)</tspan></text></g><g id="shape6" transform="translate(108.756300,179.465000)"><path stroke="#333e48" stroke-width="1" fill="#ffffff" d="M132.3,73.0L132.3,.0L.0,.0L.0,73.0L132.3,73.0z" fill-rule="nonzero"/><text xml:space="preserve" style="fill:#000000;font-family:Lato,PingFang SC,Mircrosoft YaHei,Arial;font-size:18.00pt"><tspan x="9.6" textLength="113.0" y="33.5" style="font-size:12.00pt">Scenario Runner</tspan><tspan x="28.1" textLength="76.0" y="52.5" style="font-size:12.00pt">Executable</tspan></text></g><g id="shape7" transform="translate(8.755900,345.579700)"><path stroke="#333e48" stroke-width="1" fill="#ffffff" d="M.0,53.6L.0,.0L100.0,.0L100.0,53.6L100.0,53.6C92.9,48.8,84.3,46.0,75.0,46.0C65.7,46.0,57.1,48.8,50.0,53.6L50.0,53.6C42.9,58.5,34.3,61.3,25.0,61.3C15.7,61.3,7.1,58.5,.0,53.6z" fill-rule="nonzero"/><text xml:space="preserve" style="fill:#000000;font-family:Lato,PingFang SC,Mircrosoft YaHei,Arial;font-size:18.00pt"><tspan x="20.5" textLength="62.0" y="20.0" style="font-size:12.00pt">Scenario </tspan><tspan x="33.0" textLength="34.0" y="39.0" style="font-size:12.00pt">stats</tspan></text></g><g id="shape8" transform="translate(124.898000,345.611000)"><path stroke="#333e48" stroke-width="1" fill="#ffffff" d="M.0,53.6L.0,.0L100.0,.0L100.0,53.6L100.0,53.6C92.9,48.8,84.3,45.9,75.0,45.9C65.7,45.9,57.1,48.8,50.0,53.6L50.0,53.6C42.9,58.4,34.3,61.3,25.0,61.3C15.7,61.3,7.1,58.4,.0,53.6z" fill-rule="nonzero"/><text xml:space="preserve" style="fill:#000000;font-family:Lato,PingFang SC,Mircrosoft YaHei,Arial;font-size:18.00pt"><tspan x="24.0" textLength="55.0" y="20.0" style="font-size:12.00pt">NumPy </tspan><tspan x="28.5" textLength="43.0" y="39.0" style="font-size:12.00pt">Dump</tspan></text></g><g id="shape9" transform="translate(241.039000,345.736000)"><path stroke="#333e48" stroke-width="1" fill="#ffffff" d="M.0,53.4L.0,.0L100.0,.0L100.0,53.4L100.0,53.4C92.9,48.6,84.3,45.7,75.0,45.7C65.7,45.7,57.1,48.6,50.0,53.4L50.0,53.4C42.9,58.2,34.3,61.0,25.0,61.0C15.7,61.0,7.1,58.2,.0,53.4z" fill-rule="nonzero"/><text xml:space="preserve" style="fill:#000000;font-family:Lato,PingFang SC,Mircrosoft YaHei,Arial;font-size:18.00pt"><tspan x="29.0" textLength="45.0" y="19.9" style="font-size:12.00pt">Image </tspan><tspan x="28.5" textLength="43.0" y="38.9" style="font-size:12.00pt">Dump</tspan></text></g><path stroke-dasharray="7.99998,5.33332" stroke="#333e48" stroke-width="1.3333300352096558" fill="none" id="shape10" d="M.0,.0L420.5,.0" transform="translate(276.079000,39.149600)"/><path stroke-dasharray="7.99998,5.33332" stroke="#333e48" stroke-width="1.3333300352096558" fill="none" id="shape11" d="M.0,.0L-52.1,.2" transform="translate(276.079000,39.149600)"/><g id="shape12" transform="translate(356.157000,39.622000)"><path stroke-dasharray="7.99998,5.33332" stroke="#333e48" stroke-width="1.3333300352096558" fill="none" d="M.0,.0L-0.1,37.9"/><path stroke="#333e48" stroke-width="1" fill="#333e48" d="M3.4,37.9L-0.1,44.9L-3.5,37.9L3.4,37.9" stroke-linecap="round"/></g><g id="shape13" transform="translate(468.598000,39.622000)"><path stroke-dasharray="7.99998,5.33332" stroke="#333e48" stroke-width="1.3333300352096558" fill="none" d="M.0,.0L.7,38.5"/><path stroke="#333e48" stroke-width="1" fill="#333e48" d="M4.2,38.4L.9,45.4L-2.7,38.5L4.2,38.4" stroke-linecap="round"/></g><g id="shape14" transform="translate(581.984000,39.622000)"><path stroke-dasharray="7.99998,5.33332" stroke="#333e48" stroke-width="1.3333300352096558" fill="none" d="M.0,.0L.7,39.4"/><path stroke="#333e48" stroke-width="1" fill="#333e48" d="M4.2,39.4L.9,46.4L-2.7,39.5L4.2,39.4" stroke-linecap="round"/></g><g id="shape15" transform="translate(695.370000,39.622000)"><path stroke-dasharray="7.99998,5.33332" stroke="#333e48" stroke-width="1.3333300352096558" fill="none" d="M.0,.0L.7,39.4"/><path stroke="#333e48" stroke-width="1" fill="#333e48" d="M4.2,39.4L.9,46.4L-2.7,39.5L4.2,39.4" stroke-linecap="round"/></g><g id="shape16" transform="translate(246.519300,23.635800)"><path fill="#ffffff" d="M.0,.0L85.0,.0L85.0,25.5L.0,25.5L.0,.0z" fill-rule="nonzero"/><text xml:space="preserve" style="fill:#000000;font-family:Lato,PingFang SC,Mircrosoft YaHei,Arial;font-size:18.00pt"><tspan x="8.0" textLength="69.0" y="19.3" style="font-size:12.00pt">Reference</tspan></text></g><path stroke="#333e48" stroke-width="1.3333300352096558" fill="none" id="shape17" d="M.0,.0L401.6,.0" transform="translate(294.977000,217.260000)"/><g id="shape18" transform="translate(294.976000,217.260000)"><path stroke="#333e48" stroke-width="1.3333300352096558" fill="none" d="M.0,.0L-46.0,.0"/><path stroke="#333e48" stroke-width="1" fill="#333e48" d="M-46.0,3.5L-53.0,.0L-46.0,-3.5L-46.0,3.5" stroke-linecap="round"/></g><g id="shape19" transform="translate(268.078300,198.516200)"><path fill="#ffffff" d="M.0,.0L54.0,.0L54.0,34.9L.0,34.9L.0,.0z" fill-rule="nonzero"/><text xml:space="preserve" style="fill:#000000;font-family:Lato,PingFang SC,Mircrosoft YaHei,Arial;font-size:18.00pt"><tspan x="9.5" textLength="35.0" y="23.9" style="font-size:12.00pt">Read</tspan></text></g><path stroke="#333e48" stroke-width="1.3333300352096558" fill="none" id="shape20" d="M.0,.0L.0,79.4" transform="translate(356.079000,137.851000)"/><path stroke="#333e48" stroke-width="1.3333300352096558" fill="none" id="shape21" d="M.0,.0L.0,78.3" transform="translate(469.465000,138.945000)"/><path stroke="#333e48" stroke-width="1.3333300352096558" fill="none" id="shape22" d="M.0,.0L.0,77.9" transform="translate(582.850000,139.351000)"/><path stroke="#333e48" stroke-width="1.3333300352096558" fill="none" id="shape23" d="M.0,.0L.0,77.9" transform="translate(696.236000,139.351000)"/><path stroke="#333e48" stroke-width="1.3333300352096558" fill="none" id="shape24" d="M.0,.0L232.4,.0" transform="translate(58.756000,311.748000)"/><path stroke="#333e48" stroke-width="1.3333300352096558" fill="none" id="shape25" d="M.0,.0L.0,59.3" transform="translate(174.898000,252.465000)"/><g id="shape26" transform="translate(141.827100,268.952500)"><path fill="#ffffff" d="M.0,.0L66.1,.0L66.1,27.3L.0,27.3L.0,.0z" fill-rule="nonzero"/><text xml:space="preserve" style="fill:#000000;font-family:Lato,PingFang SC,Mircrosoft YaHei,Arial;font-size:18.00pt"><tspan x="13.1" textLength="40.0" y="20.2" style="font-size:12.00pt">Write</tspan></text></g><g id="shape27" transform="translate(58.755900,311.748000)"><path stroke="#333e48" stroke-width="1.3333300352096558" fill="none" d="M.0,.0L.0,26.9"/><path stroke="#333e48" stroke-width="1" fill="#333e48" d="M3.5,26.9L.0,33.8L-3.5,26.9L3.5,26.9" stroke-linecap="round"/></g><g id="shape28" transform="translate(174.898000,311.748000)"><path stroke="#333e48" stroke-width="1.3333300352096558" fill="none" d="M.0,.0L.0,26.9"/><path stroke="#333e48" stroke-width="1" fill="#333e48" d="M3.5,26.9L.0,33.9L-3.5,26.9L3.5,26.9" stroke-linecap="round"/></g><g id="shape29" transform="translate(291.039000,311.748000)"><path stroke="#333e48" stroke-width="1.3333300352096558" fill="none" d="M.0,.0L.0,27.1"/><path stroke="#333e48" stroke-width="1" fill="#333e48" d="M3.5,27.1L.0,34.0L-3.5,27.1L3.5,27.1" stroke-linecap="round"/></g><g id="shape30" transform="translate(174.898000,62.378000)"><path stroke="#333e48" stroke-width="1.3333300352096558" fill="none" d="M.0,.0L.0,110.2"/><path stroke="#333e48" stroke-width="1" fill="#333e48" d="M3.5,110.2L.0,117.1L-3.5,110.2L3.5,110.2" stroke-linecap="round"/></g><g id="shape31" transform="translate(147.535800,112.078200)"><path fill="#ffffff" d="M.0,.0L54.7,.0L54.7,34.9L.0,34.9L.0,.0z" fill-rule="nonzero"/><text xml:space="preserve" style="fill:#000000;font-family:Lato,PingFang SC,Mircrosoft YaHei,Arial;font-size:18.00pt"><tspan x="9.9" textLength="35.0" y="23.9" style="font-size:12.00pt">Read</tspan></text></g></g></svg>
