<svg xmlns:ev="http://www.w3.org/2001/xml-events" xmlns:xlink="http://www.w3.org/1999/xlink" width="213" viewBox="0 0 213 445" xmlns="http://www.w3.org/2000/svg" height="445"><defs/><g transform="translate(5.5,5.5)" id="page1"><rect width="203" x="0" fill="#ffffff" y="0" height="435"/><g transform="translate(9.181100,9.072100)" id="shape1"><path d="M184.5,36.1L184.5,.0L.0,.0L.0,36.1L184.5,36.1z" stroke="#333e48" fill="none" stroke-width="1"/><text xml:space="preserve" style="fill:#000000;font-family:Lato,PingFang SC,Mircrosoft YaHei,Arial;font-size:18.00pt"><tspan x="52.8" style="font-size:12.00pt" y="24.6">Initiate app</tspan></text></g><g transform="translate(9.181100,72.560000)" id="shape2"><path d="M184.5,36.1L184.5,.0L.0,.0L.0,36.1L184.5,36.1z" stroke="#333e48" fill="none" stroke-width="1"/><text xml:space="preserve" style="fill:#000000;font-family:Lato,PingFang SC,Mircrosoft YaHei,Arial;font-size:18.00pt"><tspan x="20.8" style="font-size:12.00pt" y="24.6">Load scenario JSON</tspan></text></g><g transform="translate(101.440944,45.181100)" id="shape3"><path d="M.0,.0L-0.0,20.5" stroke="#333e48" fill="none" stroke-width="1.3333300352096558"/><path d="M3.5,20.5L-0.0,27.4L-3.5,20.5L3.5,20.5" stroke="#333e48" stroke-linecap="round" fill="#333e48" stroke-width="1"/></g><g transform="translate(9.181100,136.047900)" id="shape4"><path d="M184.5,36.1L184.5,.0L.0,.0L.0,36.1L184.5,36.1z" stroke="#333e48" fill="none" stroke-width="1"/><text xml:space="preserve" style="fill:#000000;font-family:Lato,PingFang SC,Mircrosoft YaHei,Arial;font-size:18.00pt"><tspan x="19.8" style="font-size:12.00pt" y="24.6">Load src resouce files</tspan></text></g><g transform="translate(101.440944,108.669000)" id="shape5"><path d="M.0,.0L.0,20.5" stroke="#333e48" fill="none" stroke-width="1.3333300352096558"/><path d="M3.5,20.5L.0,27.4L-3.5,20.5L3.5,20.5" stroke="#333e48" stroke-linecap="round" fill="#333e48" stroke-width="1"/></g><g transform="translate(9.181100,199.535800)" id="shape6"><path d="M184.5,36.1L184.5,.0L.0,.0L.0,36.1L184.5,36.1z" stroke="#333e48" fill="none" stroke-width="1"/><text xml:space="preserve" style="fill:#000000;font-family:Lato,PingFang SC,Mircrosoft YaHei,Arial;font-size:18.00pt"><tspan x="31.8" style="font-size:12.00pt" y="24.6">Execute scenario</tspan></text></g><g transform="translate(9.181100,263.023700)" id="shape7"><path d="M184.5,36.1L184.5,.0L.0,.0L.0,36.1L184.5,36.1z" stroke="#333e48" fill="none" stroke-width="1"/><text xml:space="preserve" style="fill:#000000;font-family:Lato,PingFang SC,Mircrosoft YaHei,Arial;font-size:18.00pt"><tspan x="14.3" style="font-size:12.00pt" y="24.6">Store dst resource files</tspan></text></g><g transform="translate(9.181100,326.511600)" id="shape8"><path d="M184.5,36.1L184.5,.0L.0,.0L.0,36.1L184.5,36.1z" stroke="#333e48" fill="none" stroke-width="1"/><text xml:space="preserve" style="fill:#000000;font-family:Lato,PingFang SC,Mircrosoft YaHei,Arial;font-size:18.00pt"><tspan x="9.8" style="font-size:12.00pt" y="24.6">Store performance stats</tspan></text></g><g transform="translate(9.181100,389.999500)" id="shape9"><path d="M184.5,36.1L184.5,.0L.0,.0L.0,36.1L184.5,36.1z" stroke="#333e48" fill="none" stroke-width="1"/><text xml:space="preserve" style="fill:#000000;font-family:Lato,PingFang SC,Mircrosoft YaHei,Arial;font-size:18.00pt"><tspan x="40.8" style="font-size:12.00pt" y="24.6">Shut down app</tspan></text></g><g transform="translate(101.440944,172.156900)" id="shape10"><path d="M.0,.0L-0.0,20.5" stroke="#333e48" fill="none" stroke-width="1.3333300352096558"/><path d="M3.5,20.5L-0.0,27.4L-3.5,20.5L3.5,20.5" stroke="#333e48" stroke-linecap="round" fill="#333e48" stroke-width="1"/></g><g transform="translate(101.440944,235.644800)" id="shape11"><path d="M.0,.0L.0,20.5" stroke="#333e48" fill="none" stroke-width="1.3333300352096558"/><path d="M3.5,20.5L.0,27.4L-3.5,20.5L3.5,20.5" stroke="#333e48" stroke-linecap="round" fill="#333e48" stroke-width="1"/></g><g transform="translate(101.440944,299.132700)" id="shape12"><path d="M.0,.0L-0.0,20.5" stroke="#333e48" fill="none" stroke-width="1.3333300352096558"/><path d="M3.5,20.5L-0.0,27.4L-3.5,20.5L3.5,20.5" stroke="#333e48" stroke-linecap="round" fill="#333e48" stroke-width="1"/></g><g transform="translate(101.440944,362.620600)" id="shape13"><path d="M.0,.0L-0.0,20.5" stroke="#333e48" fill="none" stroke-width="1.3333300352096558"/><path d="M3.5,20.5L-0.0,27.4L-3.5,20.5L3.5,20.5" stroke="#333e48" stroke-linecap="round" fill="#333e48" stroke-width="1"/></g></g></svg>
